<?xml version="1.0" encoding="utf-8"?>
<!-- Generator: Adobe Illustrator 21.1.0, SVG Export Plug-In . SVG Version: 6.00 Build 0)  -->
<svg version="1.1" id="Layer_1" xmlns="http://www.w3.org/2000/svg" xmlns:xlink="http://www.w3.org/1999/xlink" x="0px" y="0px"
	 viewBox="0 0 360 360" style="enable-background:new 0 0 360 360;" xml:space="preserve">
<style type="text/css">
	.st0{fill:#182F57;}
	.st1{fill:#8E9FBB;}
	.st2{fill:#C4CEE1;}
</style>
<path class="st0" d="M205.9,192.7l-21.7,29.8l35.7,27.2c1.9-1.7,4.4-2.7,7.2-2.7c6.1,0,11.1,4.9,11.1,11.1s-4.9,11.1-11.1,11.1
	c-6.1,0-11.1-4.9-11.1-11.1c0-1.9,0.5-3.6,1.3-5.1l-35.6-27.1l-23.2,32l47.4,65.2l76.6-24.9v-80.6L205.9,192.7z"/>
<g>
	<path class="st1" d="M170.5,148.2l-35.3,26.7c0.7,1.5,1.2,3.1,1.2,4.9c0,1.9-0.5,3.6-1.3,5.2l35.2,27l23.3-32L170.5,148.2z"/>
	<path class="st1" d="M125,191.2c-6.3,0-11.3-5.1-11.3-11.3c0-6.3,5.1-11.3,11.3-11.3c2.9,0,5.6,1.1,7.6,3l35.4-26.7l-21.8-30
		l-76.6,24.9v80.6l76.6,24.9l21.8-30l-35.5-26.9C130.5,190.1,127.9,191.2,125,191.2z"/>
</g>
<path class="st0" d="M205.9,36.9l-47.4,65.2l23.3,32.1l35.4-26.6c-0.9-1.6-1.5-3.5-1.5-5.5c0-6.2,5.1-11.3,11.3-11.3
	c6.2,0,11.3,5.1,11.3,11.3c0,6.2-5.1,11.3-11.3,11.3c-2.7,0-5.2-1-7.2-2.7l-35.6,26.9l21.6,29.7l76.6-24.9V61.9L205.9,36.9z"/>
<rect x="-138" y="-79.8" class="st0" width="273" height="24.8"/>
<rect x="135" y="-79.8" class="st1" width="264" height="24.8"/>
<rect x="399" y="-79.8" class="st2" width="273" height="24.8"/>
</svg>
